<?xml version="1.0" standalone="no"?>
<!DOCTYPE svg PUBLIC "-//W3C//DTD SVG 20010904//EN"
 "http://www.w3.org/TR/2001/REC-SVG-20010904/DTD/svg10.dtd">
<svg version="1.0" xmlns="http://www.w3.org/2000/svg"
 width="512.000000pt" height="512.000000pt" viewBox="0 0 512.000000 512.000000"
 preserveAspectRatio="xMidYMid meet">

<g transform="translate(0.000000,512.000000) scale(0.100000,-0.100000)"
fill="#000000" stroke="none">
<path d="M3741 5103 c-55 -20 -124 -87 -142 -139 -12 -33 -14 -421 -14 -2409
l0 -2370 24 -48 c13 -26 40 -61 59 -77 74 -61 72 -61 703 -58 538 3 576 4 609
22 49 26 88 64 113 111 l22 40 0 2385 c0 2308 -1 2386 -19 2420 -26 49 -64 88
-111 113 -40 22 -47 22 -620 24 -506 2 -586 0 -624 -14z m869 -2543 l0 -2050
-255 0 -255 0 0 2050 0 2050 255 0 255 0 0 -2050z"/>
<path d="M200 4091 c-57 -12 -109 -41 -140 -79 -64 -78 -60 57 -58 -1982 l3
-1855 22 -40 c25 -47 64 -85 113 -111 33 -18 71 -19 609 -22 631 -3 629 -3
703 58 19 16 46 51 59 77 l24 48 3 1824 c1 1218 -1 1843 -8 1880 -16 85 -55
140 -125 176 l-59 30 -555 2 c-306 0 -572 -2 -591 -6z m820 -2046 l0 -1535
-255 0 -255 0 0 1535 0 1535 255 0 255 0 0 -1535z"/>
<path d="M1987 2809 c-100 -24 -167 -88 -186 -180 -8 -34 -11 -428 -11 -1228
0 -1298 -3 -1243 62 -1317 17 -19 50 -45 72 -57 41 -22 43 -22 636 -22 593 0
595 0 636 22 22 12 55 38 72 57 65 74 62 19 62 1317 0 800 -3 1194 -11 1228
-15 73 -59 127 -127 159 l-57 27 -555 2 c-305 1 -572 -3 -593 -8z m831 -1401
l-3 -893 -255 0 -255 0 -3 893 -2 892 260 0 260 0 -2 -892z"/>
</g>
</svg>
