<?xml version="1.0" standalone="no"?>
<!DOCTYPE svg PUBLIC "-//W3C//DTD SVG 20010904//EN"
 "http://www.w3.org/TR/2001/REC-SVG-20010904/DTD/svg10.dtd">
<svg version="1.0" xmlns="http://www.w3.org/2000/svg"
 width="512.000000pt" height="512.000000pt" viewBox="0 0 512.000000 512.000000"
 preserveAspectRatio="xMidYMid meet">

<g transform="translate(0.000000,512.000000) scale(0.100000,-0.100000)"
fill="#000000" stroke="none">
<path d="M1330 4784 c-73 -26 -145 -87 -180 -156 -11 -20 -24 -67 -30 -105 -7
-46 -10 -687 -8 -1993 3 -1842 4 -1927 21 -1972 41 -105 154 -191 268 -204 64
-7 154 14 204 49 16 11 230 177 475 367 245 190 451 350 458 354 8 5 173 -118
484 -359 259 -202 491 -377 517 -388 34 -16 66 -22 122 -22 67 0 84 4 145 35
49 25 79 49 105 84 75 99 70 -74 67 2121 l-3 1970 -28 57 c-34 70 -101 131
-173 158 -54 20 -72 20 -1227 20 -1033 -1 -1177 -3 -1217 -16z m2330 -2209 l0
-1904 -467 365 c-258 200 -488 374 -513 387 -65 32 -206 32 -267 -1 -31 -16
-664 -502 -970 -745 -10 -7 -13 373 -13 1897 l0 1906 1115 0 1115 0 0 -1905z"/>
<path d="M2470 4141 c-19 -10 -45 -36 -57 -57 -21 -36 -23 -51 -23 -216 l0
-176 -182 -4 c-170 -3 -186 -5 -220 -26 -49 -31 -82 -99 -75 -154 6 -48 30
-84 77 -115 31 -22 43 -23 216 -23 l184 0 0 -184 c0 -173 1 -185 23 -216 31
-47 67 -71 115 -77 55 -7 123 26 154 75 21 34 23 50 26 220 l4 182 176 0 c165
0 180 2 216 23 48 27 76 78 76 138 0 60 -31 107 -90 137 -41 20 -58 22 -211
22 l-167 0 -4 178 c-3 157 -5 181 -24 212 -44 76 -137 102 -214 61z"/>
</g>
</svg>
