<?xml version="1.0" standalone="no"?>
<!DOCTYPE svg PUBLIC "-//W3C//DTD SVG 20010904//EN"
 "http://www.w3.org/TR/2001/REC-SVG-20010904/DTD/svg10.dtd">
<svg version="1.0" xmlns="http://www.w3.org/2000/svg"
 width="512.000000pt" height="512.000000pt" viewBox="0 0 512.000000 512.000000"
 preserveAspectRatio="xMidYMid meet">

<g transform="translate(0.000000,512.000000) scale(0.100000,-0.100000)"
fill="#000000" stroke="none">
<path d="M2455 5110 c-67 -14 -124 -38 -171 -70 -67 -45 -2116 -1823 -2159
-1872 -71 -84 -124 -232 -125 -349 -1 -190 116 -391 276 -476 114 -61 256 -79
372 -50 l52 14 2 -1021 3 -1021 33 -67 c37 -77 90 -128 172 -167 l55 -26 1595
0 1595 0 67 33 c77 38 130 92 167 171 l26 56 3 1021 2 1021 52 -14 c224 -57
471 55 581 264 103 196 82 431 -53 602 -21 26 -382 345 -802 707 -1471 1271
-1363 1183 -1484 1224 -66 24 -198 34 -259 20z m220 -254 c34 -16 369 -299
1055 -891 553 -477 1027 -888 1053 -913 60 -58 83 -101 98 -183 10 -54 9 -74
-5 -127 -37 -144 -140 -230 -277 -232 -103 0 -128 15 -386 237 -131 113 -281
243 -333 288 -52 45 -354 306 -670 580 -316 273 -591 504 -610 512 -30 13 -40
14 -73 2 -25 -9 -345 -280 -933 -789 -492 -426 -916 -786 -942 -800 -39 -21
-60 -25 -132 -25 -75 0 -91 3 -131 27 -93 55 -151 156 -153 267 -1 97 25 161
93 231 49 52 1983 1732 2069 1798 72 55 181 62 277 18z m705 -1694 l805 -697
2 -1070 c2 -835 0 -1075 -10 -1094 -6 -13 -25 -34 -40 -45 -28 -20 -40 -21
-452 -24 l-424 -3 -3 623 -3 623 -27 57 c-33 71 -93 137 -157 171 -77 42 -166
49 -568 45 -343 -4 -360 -5 -415 -27 -80 -31 -150 -98 -190 -179 l-33 -67 -3
-623 -3 -623 -424 3 c-412 3 -424 4 -452 24 -15 11 -34 32 -40 45 -10 19 -12
259 -10 1094 l2 1069 355 307 c195 169 558 483 805 697 248 215 457 390 465
391 8 0 377 -314 820 -697z m-412 -1666 c58 -30 57 -16 57 -665 l0 -596 -465
0 -465 0 0 596 c0 646 -1 634 55 664 37 21 779 21 818 1z"/>
</g>
</svg>
