<?xml version="1.0" standalone="no"?>
<!DOCTYPE svg PUBLIC "-//W3C//DTD SVG 20010904//EN"
 "http://www.w3.org/TR/2001/REC-SVG-20010904/DTD/svg10.dtd">
<svg version="1.0" xmlns="http://www.w3.org/2000/svg"
 width="512.000000pt" height="512.000000pt" viewBox="0 0 512.000000 512.000000"
 preserveAspectRatio="xMidYMid meet">

<g transform="translate(0.000000,512.000000) scale(0.100000,-0.100000)"
fill="#000000" stroke="none">
<path d="M1230 3485 l0 -205 205 0 205 0 0 205 0 205 -205 0 -205 0 0 -205z"/>
<path d="M2050 3485 l0 -205 920 0 920 0 0 205 0 205 -920 0 -920 0 0 -205z"/>
<path d="M1230 2560 l0 -200 205 0 205 0 0 200 0 200 -205 0 -205 0 0 -200z"/>
<path d="M2050 2560 l0 -200 920 0 920 0 0 200 0 200 -920 0 -920 0 0 -200z"/>
<path d="M1230 1635 l0 -205 205 0 205 0 0 205 0 205 -205 0 -205 0 0 -205z"/>
<path d="M2050 1635 l0 -205 920 0 920 0 0 205 0 205 -920 0 -920 0 0 -205z"/>
</g>
</svg>
