<?xml version="1.0" standalone="no"?>
<!DOCTYPE svg PUBLIC "-//W3C//DTD SVG 20010904//EN"
 "http://www.w3.org/TR/2001/REC-SVG-20010904/DTD/svg10.dtd">
<svg version="1.0" xmlns="http://www.w3.org/2000/svg"
 width="500.000000pt" height="500.000000pt" viewBox="0 0 500.000000 500.000000"
 preserveAspectRatio="xMidYMid meet">

<g transform="translate(0.000000,500.000000) scale(0.100000,-0.100000)"
fill="#000000" stroke="none">
<path d="M3087 3270 c-30 -24 -79 -137 -110 -256 -20 -80 -24 -88 -52 -97 -40
-13 -83 -54 -90 -87 -5 -23 -16 -30 -78 -49 -40 -13 -134 -48 -210 -77 -77
-30 -143 -54 -148 -54 -5 0 -9 18 -9 40 0 37 3 41 48 64 69 35 217 82 313 101
86 16 119 35 119 67 0 18 -35 76 -55 90 -33 24 -186 -8 -340 -72 -102 -43
-119 -42 -113 4 4 23 64 47 298 117 90 27 169 54 174 59 16 16 -7 74 -36 88
-22 10 -51 6 -214 -33 -239 -58 -342 -92 -361 -121 l-14 -23 -92 60 c-134 88
-205 126 -299 159 -99 35 -150 38 -178 10 -24 -24 -25 -36 -6 -72 10 -19 11
-30 4 -34 -10 -6 -8 -42 7 -111 6 -26 4 -33 -8 -33 -20 0 -47 -27 -47 -46 0
-15 65 -84 79 -84 9 0 48 -214 57 -319 10 -107 58 -153 102 -96 21 26 21 43 7
285 l-7 115 49 -3 c37 -3 53 -9 63 -25 8 -12 48 -103 91 -202 l77 -180 48 0
49 0 -1 65 c-1 69 -29 140 -109 278 l-36 63 83 -7 c46 -4 85 -8 87 -11 3 -2
12 -84 21 -183 14 -158 19 -183 38 -203 12 -13 22 -28 22 -34 0 -33 53 -23
210 40 116 46 263 92 329 103 l36 6 -3 -49 c-5 -62 19 -96 67 -96 49 0 70 28
86 119 12 68 14 71 10 22 -7 -86 11 -70 24 20 6 43 16 95 22 115 9 35 12 37
49 37 22 0 43 0 48 1 4 0 13 -21 20 -48 57 -211 89 -273 137 -273 14 0 28 6
31 13 3 8 18 11 42 9 62 -6 65 2 61 212 -2 101 -3 183 -2 182 2 -1 25 -85 53
-187 48 -175 63 -209 95 -209 18 0 40 31 53 75 25 86 51 215 46 229 -5 14 12
89 48 211 12 38 23 64 26 57 2 -6 -4 -35 -13 -63 -9 -27 -15 -52 -13 -55 3 -2
10 14 17 37 7 22 14 39 16 37 10 -11 65 -297 70 -368 9 -119 12 -128 48 -150
43 -27 72 -25 95 5 33 42 35 85 7 227 -14 73 -37 192 -51 265 -28 153 -54 230
-89 263 -21 19 -34 23 -77 21 -29 -1 -58 -7 -64 -12 -7 -5 -17 -40 -24 -77
-10 -58 -78 -369 -96 -442 -8 -31 -32 72 -74 314 -33 195 -45 219 -107 224
-56 4 -67 -13 -74 -122 l-6 -91 -1 82 c-1 45 -6 84 -11 87 -13 8 -21 -57 -21
-177 0 -83 -3 -108 -12 -105 -17 6 -25 47 -28 148 -3 72 -4 78 -9 40 l-7 -45
-8 60 c-14 112 -15 114 -64 145 -55 35 -80 37 -115 10z m431 -246 c12 -70 21
-129 19 -131 -5 -4 -43 157 -54 221 -3 20 -2 36 3 36 5 0 19 -57 32 -126z
m-1601 47 c45 -22 99 -51 120 -66 l38 -26 -55 7 c-30 4 -74 18 -98 30 -41 22
-69 22 -83 1 -11 -17 -26 1 -34 40 -4 20 -14 43 -23 51 -32 26 49 4 135 -37z
m1241 -88 l8 -73 -33 0 c-38 0 -38 -2 -18 75 28 110 30 109 43 -2z m-579 -147
c-7 -7 -153 -66 -155 -63 -9 9 19 27 71 45 55 19 94 27 84 18z m492 -137 c-6
-16 -10 -18 -10 -7 -1 22 12 55 16 42 2 -6 -1 -22 -6 -35z m-14 -61 c-3 -7 -5
-2 -5 12 0 14 2 19 5 13 2 -7 2 -19 0 -25z m-623 -192 c-11 -8 -34 -17 -50
-20 -25 -5 -23 -3 11 14 47 23 68 26 39 6z"/>
<path d="M1050 3245 c-14 -8 -35 -19 -48 -24 -12 -6 -25 -16 -27 -23 -3 -7 17
-122 43 -255 l49 -241 -33 5 c-26 4 -38 0 -58 -20 -51 -51 -31 -94 64 -142 39
-19 70 -41 70 -48 0 -8 11 -24 24 -36 20 -19 32 -22 67 -18 24 3 45 9 46 14 2
6 32 4 76 -4 107 -21 212 -12 278 24 64 34 89 72 89 135 0 109 -87 244 -289
449 -113 114 -158 154 -201 173 -62 29 -113 33 -150 11z m17 -383 c27 -106 44
-187 37 -180 -10 11 -40 123 -88 327 -8 35 -11 60 -7 55 5 -5 31 -96 58 -202z
m228 95 c129 -97 299 -316 281 -362 -2 -7 -29 -18 -58 -24 -56 -12 -112 -6
-213 24 l-51 14 -33 183 c-17 101 -35 196 -38 211 l-6 29 30 -15 c16 -9 56
-36 88 -60z"/>
<path d="M2590 3213 c-106 -18 -359 -97 -347 -109 2 -2 21 3 41 11 21 9 115
36 209 60 147 37 188 53 97 38z"/>
<path d="M3751 2834 c0 -11 3 -14 6 -6 3 7 2 16 -1 19 -3 4 -6 -2 -5 -13z"/>
<path d="M1854 2755 c3 -38 6 -99 7 -135 0 -50 2 -60 9 -42 9 22 -6 232 -17
242 -3 3 -3 -26 1 -65z"/>
<path d="M2895 2252 c-30 -6 -45 -22 -45 -48 0 -26 26 -44 65 -44 39 0 65 18
65 44 0 36 -39 57 -85 48z m53 -44 c2 -12 -5 -19 -23 -24 -31 -8 -50 7 -41 31
8 22 60 16 64 -7z"/>
<path d="M1900 2205 c0 -33 4 -45 15 -45 10 0 15 10 15 31 l0 31 26 -31 c14
-17 34 -31 45 -31 16 0 19 7 19 45 0 33 -4 45 -15 45 -10 0 -15 -10 -15 -27
l-1 -28 -24 28 c-13 15 -33 27 -45 27 -17 0 -20 -6 -20 -45z"/>
<path d="M2046 2234 c-21 -20 -20 -37 2 -57 28 -25 87 -22 106 5 9 12 16 26
16 30 0 19 -35 38 -70 38 -22 0 -45 -7 -54 -16z m79 -29 c0 -22 -31 -33 -47
-17 -17 17 -1 44 24 40 15 -2 23 -10 23 -23z"/>
<path d="M2170 2240 c0 -5 9 -10 20 -10 16 0 20 -7 20 -35 0 -24 5 -35 15 -35
10 0 15 11 15 35 0 28 4 35 20 35 11 0 20 5 20 10 0 6 -25 10 -55 10 -30 0
-55 -4 -55 -10z"/>
<path d="M2310 2205 l0 -46 73 2 c39 2 80 7 90 13 12 8 23 7 37 -2 11 -6 49
-12 84 -12 55 0 67 3 80 21 15 22 11 48 -8 61 -6 4 -32 8 -58 8 l-48 0 -1 -42
0 -43 -22 43 c-28 56 -57 57 -82 2 -16 -35 -20 -38 -30 -24 -6 9 -10 27 -7 40
4 23 2 24 -52 24 l-56 0 0 -45z m75 15 c-3 -5 -13 -10 -21 -10 -8 0 -14 5 -14
10 0 6 9 10 21 10 11 0 17 -4 14 -10z m115 -24 c-14 -14 -24 0 -16 21 6 15 8
15 16 3 6 -9 5 -19 0 -24z m145 9 c0 -13 -8 -21 -22 -23 -19 -3 -23 1 -23 23
0 22 4 26 23 23 14 -2 22 -10 22 -23z m-255 -15 c0 -5 -9 -10 -20 -10 -11 0
-20 5 -20 10 0 6 9 10 20 10 11 0 20 -4 20 -10z"/>
<path d="M2720 2205 l0 -46 58 3 57 3 0 40 0 40 -57 3 -58 3 0 -46z m75 15
c-3 -5 -13 -10 -21 -10 -8 0 -14 5 -14 10 0 6 9 10 21 10 11 0 17 -4 14 -10z
m10 -30 c4 -6 -5 -10 -19 -10 -14 0 -26 5 -26 10 0 6 9 10 19 10 11 0 23 -4
26 -10z"/>
<path d="M3009 2221 c12 -16 21 -36 21 -45 0 -9 7 -16 15 -16 8 0 15 6 15 14
0 7 9 25 20 39 11 14 20 28 20 31 0 12 -24 6 -42 -10 -16 -16 -18 -16 -24 0
-3 9 -15 16 -26 16 -19 0 -19 -1 1 -29z"/>
<path d="M2286 2019 c-32 -25 -56 -69 -56 -104 0 -35 24 -79 56 -104 25 -20
39 -21 215 -21 l188 0 35 31 c60 52 61 126 1 186 l-33 33 -190 0 c-177 0 -191
-1 -216 -21z m428 -18 c52 -49 51 -124 -4 -173 l-30 -28 -179 0 c-178 0 -180
0 -210 26 -58 48 -58 125 0 177 l31 28 183 -3 c179 -3 184 -4 209 -27z"/>
<path d="M2394 1948 c-5 -8 -2 -9 9 -5 21 8 22 -6 2 -23 -23 -19 -18 -30 13
-29 23 2 24 2 4 6 l-22 4 21 18 c13 10 19 23 15 29 -9 15 -33 15 -42 0z"/>
<path d="M2452 1944 c-13 -24 -3 -54 18 -54 10 0 20 8 23 19 5 20 -9 51 -23
51 -5 0 -13 -7 -18 -16z m28 -19 c0 -14 -4 -25 -10 -25 -5 0 -10 11 -10 25 0
14 5 25 10 25 6 0 10 -11 10 -25z"/>
<path d="M2504 1948 c-5 -8 -2 -9 9 -5 24 9 31 -10 7 -23 -28 -15 -25 -30 8
-29 23 0 24 2 7 8 -18 7 -18 8 -1 18 12 7 17 17 13 27 -7 19 -33 21 -43 4z"/>
<path d="M2564 1949 c-5 -9 -2 -10 10 -6 14 5 17 3 12 -8 -3 -8 -1 -15 4 -15
6 0 10 -5 10 -11 0 -7 -9 -9 -21 -6 -16 4 -19 3 -11 -5 18 -18 41 -1 39 29 -3
29 -29 43 -43 22z"/>
</g>
</svg>
