<?xml version="1.0" standalone="no"?>
<!DOCTYPE svg PUBLIC "-//W3C//DTD SVG 20010904//EN"
 "http://www.w3.org/TR/2001/REC-SVG-20010904/DTD/svg10.dtd">
<svg version="1.0" xmlns="http://www.w3.org/2000/svg"
 width="500.000000pt" height="500.000000pt" viewBox="0 0 500.000000 500.000000"
 preserveAspectRatio="xMidYMid meet">

<g transform="translate(0.000000,500.000000) scale(0.100000,-0.100000)"
fill="#000000" stroke="none">
<path d="M0 2500 l0 -2500 2500 0 2500 0 0 2500 0 2500 -2500 0 -2500 0 0
-2500z m3204 759 c48 -32 50 -37 62 -134 l8 -60 7 40 c5 33 7 27 8 -35 3 -96
13 -152 29 -158 9 -3 12 24 12 111 0 123 7 180 21 171 5 -3 10 -40 11 -82 l1
-77 6 86 c8 104 18 121 75 117 55 -4 78 -40 95 -149 29 -192 74 -403 82 -384
10 22 94 397 104 462 8 52 20 62 79 67 83 6 121 -44 155 -209 66 -323 93 -478
87 -509 -16 -83 -78 -110 -133 -58 -27 25 -30 34 -36 120 -6 84 -26 197 -61
342 l-13 55 -28 -93 c-19 -61 -32 -88 -37 -80 -6 8 -7 -1 -3 -22 5 -28 4 -32
-5 -20 -10 12 -11 11 -6 -9 5 -23 -32 -203 -54 -268 -7 -18 -20 -35 -30 -38
-43 -14 -56 9 -100 167 -41 152 -74 256 -65 207 2 -14 5 -99 6 -189 1 -146 -1
-165 -18 -181 -14 -14 -25 -17 -47 -11 -23 6 -34 4 -48 -10 -44 -44 -99 35
-145 210 l-26 102 -48 0 c-37 0 -49 -4 -53 -17 -6 -20 -36 -190 -36 -204 0 -5
-5 -9 -11 -9 -7 0 -9 20 -5 58 4 45 2 41 -9 -23 -11 -64 -19 -85 -41 -103 -54
-47 -118 -2 -112 80 2 31 -1 48 -8 48 -35 0 -227 -58 -344 -104 -161 -64 -194
-72 -209 -54 -6 7 -20 24 -31 37 -11 13 -20 24 -21 25 0 1 -9 83 -19 184 -10
101 -19 185 -21 186 -2 2 -41 6 -87 9 l-83 6 31 -52 c17 -28 50 -90 73 -137
35 -73 41 -94 42 -150 l0 -65 -49 0 -49 0 -44 105 c-24 58 -64 149 -90 203
l-46 97 -50 0 -50 0 7 -87 c20 -286 20 -276 -4 -305 -12 -16 -29 -28 -38 -28
-28 0 -62 45 -62 81 0 51 -52 359 -60 359 -15 0 -80 69 -80 84 0 19 27 46 47
46 11 0 14 6 10 23 -15 59 -19 108 -9 119 7 9 6 19 -4 32 -33 46 1 96 66 96
81 0 247 -75 421 -189 l86 -56 16 21 c21 29 121 61 365 120 181 43 194 45 217
30 21 -14 45 -79 34 -90 -2 -2 -80 -27 -174 -54 -93 -28 -199 -62 -235 -76
-59 -22 -65 -27 -63 -51 1 -15 4 -29 6 -31 2 -2 47 14 101 36 177 71 311 98
347 68 28 -24 51 -70 46 -94 -5 -28 0 -29 27 -9 11 8 28 15 38 15 10 0 20 6
23 13 2 6 15 55 30 107 48 174 94 250 151 250 13 0 43 -14 68 -31z m-2006 -21
c32 -15 92 -66 193 -167 187 -188 259 -286 293 -399 27 -92 -2 -157 -90 -202
-45 -23 -59 -25 -161 -22 -180 4 -186 4 -231 -4 -37 -5 -47 -3 -68 17 -13 12
-24 28 -24 36 0 7 -31 29 -70 48 -95 48 -115 91 -64 142 20 20 32 24 58 20
l33 -5 -49 240 c-27 132 -47 247 -44 255 3 7 14 16 23 20 10 3 29 15 42 25 32
25 100 23 159 -4z m1307 -63 c-93 -23 -190 -50 -214 -59 -60 -22 -63 -14 -4
12 99 42 287 90 353 90 19 0 -41 -19 -135 -43z m-636 -461 c7 -65 8 -121 3
-134 -6 -17 -11 14 -16 101 -3 68 -9 135 -12 149 -4 18 -3 21 4 10 5 -8 15
-65 21 -126z m93 -491 l28 -27 0 27 c0 17 5 27 15 27 11 0 15 -12 15 -45 0
-38 -3 -45 -19 -45 -11 0 -31 15 -45 33 l-26 32 0 -32 c0 -23 -5 -33 -15 -33
-11 0 -15 12 -15 45 0 54 19 60 62 18z m192 5 c28 -40 -19 -79 -79 -64 -64 16
-44 86 25 86 28 0 43 -6 54 -22z m126 12 c0 -5 -9 -10 -20 -10 -16 0 -20 -7
-20 -35 0 -24 -5 -35 -15 -35 -10 0 -15 11 -15 35 0 28 -4 35 -20 35 -11 0
-20 5 -20 10 0 6 25 10 55 10 30 0 55 -4 55 -10z m135 -17 c0 -12 4 -25 8 -29
16 -16 -18 -34 -64 -34 l-49 0 0 46 0 45 53 -3 c46 -3 52 -6 52 -25z m115 -10
c8 -21 16 -41 18 -45 2 -5 -3 -8 -12 -8 -9 0 -16 5 -16 10 0 6 -11 10 -24 10
-14 0 -28 -4 -31 -10 -3 -5 -13 -10 -20 -10 -12 0 -10 10 7 45 29 59 58 61 78
8z m138 25 c18 -18 14 -56 -7 -68 -11 -5 -36 -10 -55 -10 -36 0 -36 0 -36 45
l0 45 43 0 c24 0 48 -5 55 -12z m165 -2 c3 -7 0 -19 -6 -25 -8 -8 -8 -11 1
-11 18 0 15 -27 -4 -34 -9 -3 -33 -6 -55 -6 l-39 0 0 45 0 45 49 0 c32 0 51
-5 54 -14z m128 4 c41 -23 11 -80 -42 -80 -43 0 -69 17 -69 45 0 40 64 60 111
35z m71 -7 c17 -15 19 -15 32 2 7 10 18 16 25 14 9 -3 6 -12 -8 -31 -12 -14
-21 -33 -21 -42 0 -9 -7 -16 -15 -16 -8 0 -15 7 -15 16 0 9 -9 29 -21 45 -23
32 -8 40 23 12z m-324 -213 c67 -41 78 -131 22 -193 l-28 -32 -195 -3 -194 -3
-31 26 c-36 30 -56 83 -47 125 8 36 41 79 69 90 11 5 100 9 196 9 159 1 178
-1 208 -19z"/>
<path d="M3480 3140 c0 -25 43 -210 48 -206 6 7 -29 200 -39 211 -6 5 -9 3 -9
-5z"/>
<path d="M1783 3107 c10 -8 21 -31 24 -51 7 -44 18 -53 39 -32 21 21 30 20 78
-8 23 -13 63 -26 91 -29 l50 -5 -25 20 c-35 29 -200 107 -241 114 -31 5 -32 4
-16 -9z"/>
<path d="M3137 3060 c-7 -16 -37 -134 -37 -144 0 -3 14 -6 30 -6 28 0 30 2 29
38 -1 58 -15 129 -22 112z"/>
<path d="M3773 2950 c-33 -106 -36 -143 -3 -45 16 50 28 95 26 100 -2 6 -12
-19 -23 -55z"/>
<path d="M3531 2904 c0 -11 3 -14 6 -6 3 7 2 16 -1 19 -3 4 -6 -2 -5 -13z"/>
<path d="M2837 2874 c-3 -3 -47 -14 -99 -24 -104 -20 -191 -48 -285 -90 -62
-28 -63 -29 -63 -69 0 -23 4 -41 9 -41 4 0 64 22 132 49 68 27 163 62 212 77
48 16 87 33 87 39 0 5 7 22 14 38 13 24 9 37 -7 21z"/>
<path d="M2485 2813 c-43 -13 -70 -31 -61 -40 2 -2 32 10 67 26 71 33 69 37
-6 14z"/>
<path d="M3066 2725 c-3 -9 -6 -24 -5 -33 0 -9 5 -4 10 12 9 32 6 48 -5 21z"/>
<path d="M3052 2650 c0 -14 2 -19 5 -12 2 6 2 18 0 25 -3 6 -5 1 -5 -13z"/>
<path d="M2395 2440 c-22 -10 -33 -19 -25 -19 8 0 31 8 50 19 45 24 28 24 -25
0z"/>
<path d="M1004 3060 c3 -8 24 -94 47 -190 22 -96 47 -181 55 -189 10 -11 8 1
-5 45 -9 32 -32 120 -51 194 -18 74 -37 140 -42 145 -6 6 -7 5 -4 -5z"/>
<path d="M1182 3012 c4 -12 21 -108 39 -212 l34 -191 51 -15 c112 -32 194 -35
257 -9 24 10 22 22 -20 94 -74 125 -216 270 -323 330 -43 24 -43 24 -38 3z"/>
<path d="M2067 2216 c-7 -19 17 -39 40 -34 10 2 19 13 21 26 3 18 -1 22 -26
22 -17 0 -32 -6 -35 -14z"/>
<path d="M2345 2230 c-8 -12 20 -24 35 -15 6 3 8 11 5 16 -8 12 -32 12 -40 -1z"/>
<path d="M2340 2190 c0 -5 11 -10 25 -10 14 0 25 5 25 10 0 6 -11 10 -25 10
-14 0 -25 -4 -25 -10z"/>
<path d="M2487 2223 c-12 -12 -7 -33 8 -33 17 0 19 9 7 28 -5 7 -11 9 -15 5z"/>
<path d="M2593 2214 c-3 -8 -1 -20 5 -26 16 -16 47 -5 50 20 3 18 -1 22 -23
22 -14 0 -28 -7 -32 -16z"/>
<path d="M2760 2225 c0 -8 9 -15 20 -15 11 0 20 7 20 15 0 8 -9 15 -20 15 -11
0 -20 -7 -20 -15z"/>
<path d="M2760 2190 c0 -5 12 -10 26 -10 14 0 23 4 19 10 -3 6 -15 10 -26 10
-10 0 -19 -4 -19 -10z"/>
<path d="M2884 2215 c-9 -22 9 -37 37 -33 16 2 24 10 24 23 0 26 -52 35 -61
10z"/>
<path d="M2291 2004 c-44 -37 -58 -91 -36 -138 29 -60 51 -66 245 -66 193 0
217 6 246 68 21 45 6 100 -37 136 -30 26 -32 26 -209 26 -177 0 -179 0 -209
-26z m136 -60 c4 -10 -1 -20 -13 -27 -18 -10 -18 -11 6 -18 l25 -7 -27 -1
c-31 -1 -36 10 -13 29 20 16 19 34 -1 26 -8 -3 -12 -2 -9 4 9 15 25 12 32 -6z
m58 -20 c0 -19 -5 -29 -15 -29 -16 0 -25 28 -16 51 10 25 31 10 31 -22z m60
25 c4 -5 -1 -19 -10 -29 -15 -17 -15 -19 2 -23 12 -3 9 -5 -9 -6 -20 -1 -26 3
-22 13 3 8 12 17 20 20 8 3 14 10 14 17 0 6 -7 8 -16 5 -8 -3 -12 -2 -9 4 8
13 22 13 30 -1z m63 -25 c0 -28 -23 -43 -40 -26 -8 8 -5 9 11 5 12 -3 21 -1
21 6 0 6 -5 11 -10 11 -8 0 7 27 16 30 1 0 2 -12 2 -26z"/>
<path d="M2460 1925 c0 -14 5 -25 10 -25 6 0 10 11 10 25 0 14 -4 25 -10 25
-5 0 -10 -11 -10 -25z"/>
</g>
</svg>
